<svg xmlns="http://www.w3.org/2000/svg" viewBox="0 0 240 240" role="img" aria-labelledby="title desc">
  <title id="title">Credit Divisions World Cup Leaderboard mark</title>
  <desc id="desc">An original football leaderboard mark with a pitch, lights, and four host-energy colors.</desc>
  <defs>
    <linearGradient id="sky" x1="0" x2="1" y1="0" y2="1">
      <stop offset="0" stop-color="#1769aa"/>
      <stop offset="0.55" stop-color="#14213d"/>
      <stop offset="1" stop-color="#064631"/>
    </linearGradient>
    <linearGradient id="pitch" x1="0" x2="1">
      <stop offset="0" stop-color="#18a558"/>
      <stop offset="1" stop-color="#0b6b4a"/>
    </linearGradient>
  </defs>
  <rect width="240" height="240" rx="28" fill="url(#sky)"/>
  <circle cx="48" cy="42" r="12" fill="#f7b801"/>
  <circle cx="192" cy="42" r="12" fill="#f7b801"/>
  <path d="M36 178c24-36 144-36 168 0v32H36z" fill="url(#pitch)"/>
  <path d="M52 184h136M78 166l-26 34M162 166l26 34M120 153v57" stroke="#fff" stroke-width="5" stroke-linecap="round" opacity=".8"/>
  <circle cx="120" cy="181" r="21" fill="none" stroke="#fff" stroke-width="5" opacity=".85"/>
  <path d="M52 62l48 72M188 62l-48 72" stroke="#fff" stroke-width="7" opacity=".2"/>
  <g transform="translate(72 66)">
    <circle cx="48" cy="48" r="42" fill="#fff"/>
    <path d="M48 15l23 17-9 28H34l-9-28z" fill="#14213d"/>
    <path d="M25 32L8 46l9 26 17-12zM71 32l17 14-9 26-17-12zM34 60l-10 22 24 14 24-14-10-22z" fill="#d62839"/>
    <path d="M48 15v45M25 32l37 28M71 32L34 60" stroke="#fff" stroke-width="3" opacity=".65"/>
  </g>
</svg>
